<svg xmlns="http://www.w3.org/2000/svg" viewBox="0 0 1000 1200" enable-background="new 0 0 1000 1200">
    <g>
        <path d="M980.25 1073.414c-.464-.938-.928-1.876-1.39-2.814 1.787 1.883 1.14.64 1.39 2.814zm-113.32-635.91c23.42 19.918 48.7 43.418 71.607 66.122 24.658 24.44 46.863 63.99 17.38 90.744-3.566 3.236-22.167 5.317-27.808 7.034-3.337-9.228-11.312-1.767-18.076-6.33-6.596-4.452-10.832-10.578-18.77-15.477-16.004-9.875-16.05-30.418-35.457-35.876-19.712-5.543-54.308-2.958-70.912 4.222-.358.155-8.623 4.6-9.733 1.407-2.078 2.004-8.43 8.044-13.904 6.33 30.772-16.697 62.205-37 87.597-61.2-7.408-25.625-62.46-71.918-82.73-94.964l4.866 1.407c-.23-.703-.462-1.407-.694-2.11-3.542-2.32-4.45-2.465-6.952-7.034 10.738 1.166 20.822 7.71 29.2 11.958l27.808 7.738c13.986 9.215 33.656 15.037 46.578 26.027zM793.237 813.14c-.464-.233-.927-.468-1.39-.702l-1.39-2.11c2.57 1.316 1.448.328 2.78 2.813zm-4.17.704c-2.663-1.84-3.388-2.377-4.172-6.33l4.17 6.33zm-11.82 19.697h-2.78c-.464-.937-.928-1.875-1.39-2.813 2.265-2.81 1.753-.87 1.39-3.517-2.707-1.187-1.06.687-2.087-2.11l.695 1.407c.463.234.927.47 1.39.703l4.866 3.517c-2.878 1.97-1.67-.68-2.083 2.814zm-7.647-10.55l-3.476-4.925c3.617 1.16 4.125 2.535 6.257 4.924h-2.78zm-590.93 212.44c-10.357 16.976-13.58 32.51-22.247 45.02-7.936-2.15-7.43 1.537-13.21 4.923-19.685-2.268-42.093-7.346-51.445-17.586.47-8.55-13.844-17.33-18.076-24.62l-1.39-24.62c-5.256-17.815-13.155-38.845-14.6-60.496-.79-11.838 37.48-69.106 45.884-87.93 19.36-43.356 30.158-91.415 38.932-134.356 4.08-19.976-3.532-35.58.695-52.055 16.632 1.72 44.2 13.33 56.312 28.137 3.79 4.633 6.06 13.03 11.123 18.29l-1.39 4.22c.01 8.926 5.7 27.964 9.733 39.394 3.982 11.287 1.41 25.428 4.867 37.987 21.546 78.273-8.583 163.69-45.187 223.692zm125.833-28.843l-.695-1.407-4.17-2.814c2.888.866 5.683 1.486 4.865 4.22zm30.59 16.883v-1.407c.23.234.462.47.694.703 2.786.98 1.21-.236 2.086 2.11l-2.78-1.406zm135.566-5.627c-4.637.78-12.34 5.814-20.162 2.814l6.257-4.924 6.952 2.11.695-3.516c2.317.235 4.635.47 6.952.703-2.26 1.783-2.1.284-.695 2.813zm509.59 149.833c.23 2.813.463 5.628.694 8.44-19.625 9.565-39.132 25.403-65.35 19.697-1.272-.277-5.848-.992-6.952 1.407-5.026-4.904-41.032-11.023-52.836-15.476-9.28-3.5-25.216-14.498-36.15-20.4-62.335-33.643-116.398-74.99-166.852-122.4l-54.227-57.68c-6.362-8.068-13.063-22.554-21.552-26.028L541.57 982.67c-7.202 5.856-20.393 6.386-28.505 14.772-2.085-.47-4.172-.938-6.257-1.407-9.477 5.42-11.76 10.957-22.942 16.882-9.798 5.193-19.084-5.435-32.675 0-16.695 6.677-32.84 16.62-52.14 18.29-5.266-4.233-6.826-4.59-15.295-2.814v.703l5.562 2.11c-19.098.144-70.435-14.137-82.035-23.917.18-4.894-32.665-26.517-41.017-30.25v-.702l2.78-2.11c3.22 3.195.632 2.12 4.867 2.11-3.134-8.074-9.266-13.36-13.21-18.993h.696c15.604 8.213 25.966 9.81 44.494 15.476-1.16-1.875-2.317-3.75-3.476-5.627 35.305 21.362 71.305-3.116 105.672-8.44l-1.39-.704-4.867-1.408c6.252-2.755 12.885-1.586 18.772-3.517 15.248-5.002 33.04-24.887 49.36-23.214-.65-2.858.887-.774-1.39-2.813 16.853-10.742 30.826-21.484 44.493-35.172-1.622.234-3.245.47-4.866.703.23-.703.462-1.407.694-2.11 27.786-7.888-.423-42.962-10.428-61.903-27.318-51.712-53.852-116.38-80.645-171.64-8.665-.833-35.852 8.985-43.102 11.255-46.823 14.66-134.863 3.732-152.25-32.358 33.393-.966 63.523-23.822 82.73-27.434 2.004-3.542 2.938-5.55 5.56-7.035-.23.938-.462 1.876-.694 2.814 8.805-3.75 17.613-7.504 26.418-11.255-.99-2.62-1.324-1.603 0-4.924-4.06.902-2.523.846-6.257-.703l.695 3.517c-6.866.556-7.71 5.06-13.904 3.517 2.202-1.476 25.814-19.81 22.942-25.325l-.695 1.407c-1.16 1.172-2.317 2.345-3.476 3.517l-2.78-.704c.462-1.172.926-2.345 1.39-3.517h-2.782l-2.78 6.33c2.464.458 2.597-1.076 2.085 1.407-1.16 1.875-2.317 3.752-3.476 5.628l-2.78-1.407c.23-.703.462-1.407.694-2.11l-6.952 4.22v-.702l.695-2.814c6.17-2.436 3.898-3.382 9.04-2.11-.465-1.64-.928-3.283-1.39-4.924 10.266-9.735 20.752-21.507 27.112-33.062l2.78 2.814.696-2.814c-1.187-10.005 6.65-8.84 11.123-16.18h-3.475l6.952-7.034c.094-.362-15.99-83.71-15.99-83.71 24.212-.31 35.57 16.07 55.617 27.435h1.39c-.553-6.114 21.022-35.783 27.808-42.207-3.24-1.276-1.49.886-2.78-2.11 2.997-.567 1.6.915 3.475-2.11-1.39.013-.656-.167 0-1.407 2.1-16.967 22.696-35.778 30.59-53.462 17.743-39.752 40.797-81.65 52.835-128.73v-.702c-21.85-.446-125.033 13.157-133.48 21.807-16.245 16.632-21.422 77.89-26.42 94.26-3.04 9.966 4.146 24.13 2.782 31.656-1.37 7.57-14.958 21.138-11.82 30.952l-15.294 12.662c-49.846 25.05-82.534-63.493-98.025-81.6-.695.236-1.39.47-2.086.704-20.403 56.273-57.256 90.098-118.187 61.2-21.63-10.26-42.746-12.833-59.093-28.84-1.69-1.657-10.142-1.61-14.6-4.222l-14.6-14.07c-2.558-2.165-5.387 1.872-7.646.704C15.464 349.542 3.286 337.583 0 322.842c12.695-13.152 61.17-22.91 79.254-16.18 30.49-8.314 67.133-11.44 91.768-26.026 6.5-3.85 46.405-14.364 45.19-18.993 3.34-5.586-1.267-11.04-2.782-16.883-5.546-21.398-14.054-82.365-2.78-96.372h-2.087v-.703c25.824 2.424 62.985 46.915 76.473 64.717 5.568 7.35 9.404 20.63 16.685 23.917l77.17-18.994c6.803-1.223 22.345-.12 30.59-4.924l13.903-18.29c-2.55 5.627-5.1 11.256-7.647 16.883 38.203-3.044 84.496-11.72 120.272-14.772 8.8-29.508 20.86-62.885 28.504-91.447 4.635-17.317 4.114-43.897 1.39-56.275-.27-1.228-1.642-6.46-2.086-4.923-2.226-13.8 5.386-19.876-1.39-35.875.232-.235.463-.47.695-.703 2.55 1.875 5.1 3.75 7.648 5.627l-2.086-9.145L574.244 7l-1.39-2.11V2.78c9.252 3.228 14.5 11.916 20.16 18.992 1.572 1.964 9.247 3.048 11.124 5.628 28.35 38.966 56.975 73.04 68.826 118.882 3.592 13.892-15.404 43.832-15.99 51.35 1.977 1.39.89 1.02 2.78 1.408 9.403 2.84 25.312-4.526 35.457 2.11 10.16 6.645 23.182 8.022 34.066 13.365 19.475 9.56 61.622 40.682 70.216 54.87 5.184 8.556 8.945 15.708 12.514 25.323l.695 11.255c-5.344 9.417-13.91 22.457-22.94 29.545-34.237 26.864-89.897-33.75-98.72-48.537-4.86-8.14-21.475-28.852-34.066-25.323-3.612 1.013-39.376 13.162-39.627 13.365-9.156 7.398-9.742 24.117-18.076 32.358-13.71 13.56-24.004 33.688-39.626 51.35l-4.866 16.18c-1.003 1.724-15.64 19.734-18.076 14.772l-20.16 27.434c.926.47 1.853.938 2.78 1.407-13.546 1.628-24.293 27.884-35.456 35.172-2.698.715-.536.92-3.476-.703-3.505 15.534-6.79 15.693-23.637 28.138 3.336 2.243-.51 1.167-2.78 3.517l2.085 4.924 4.17-4.22c-.23.47-.462.938-.694 1.407l-6.257 8.44c4.818 8.267 12.512 15.81 19.466 20.4l19.466-11.254c3.568-3.138 3.976-8.62 8.342-11.255 31.138-18.79 58.374-27.2 98.72-29.545 40.34-2.344 88.977 59.375 25.028 80.896 2.32 3.74 2.378 3.902-.695 7.034-30.906 1.724-62.99 38.262-86.206 53.46-8.177 5.354-36.172 11.438-38.238 16.18-6.417 14.735 9.308 36.248 10.428 51.35 1.616 21.797 35.41 125.023 55.617 141.393.232-.235.463-.47.695-.703 15.69-41.652 41.295-86.156 57.703-128.027 7.278-18.574-3.158-47.553 2.78-57.682 20.232 4.625 33.524 21.083 43.104 30.248 23 22.003 35.23 42.98 43.797 70.344 2.305 7.363-3.288 20.966-3.476 30.248-1.62 2.58-3.244 5.16-4.865 7.738-6.807 22.1-20 40.9-34.065 58.386-1.16 3.047-2.317 6.096-3.476 9.144-14.172 16.667-34.196 38.693-43.103 60.496 44.742 51.56 98.556 94.2 152.948 133.654 12.53 9.09 34.3 20.674 45.884 28.138 7.01 4.517 15.8 4.474 20.16 9.848.928-.234 1.855-.47 2.782-.703l2.78-28.138-5.56-26.028c1.8 3.244 1.666 5.74 4.865 7.738-16.44-57.28-20.418-87.898-47.275-135.764l-11.123-23.214-.695 2.11c-6.303-10.462-6.655-13.943-13.21-24.62h.696c4.464 1.2 7.647.703 7.647.703 3.102 7.147 3.703 13.927 8.343 19.696 2.677-1.035.335-1.053 2.78-.702 2.032-3.54-1.452-1.548-2.085-4.22h-2.086c3.33-2.006 2.06-1.67 5.562 0l-8.343-16.884c.928-.234 1.855-.47 2.782-.703l37.54 56.98c-1.904-23.677-28.498-50.728-38.236-75.972.927-.234 1.854-.47 2.78-.703h.696c3.338 10.964 35.616 45.274 45.19 60.496 22.53 35.83 47.554 69.81 75.777 104.814l4.865-2.11.695 2.11-1.39 2.814-1.39-2.814-.695 2.814 6.257 3.517c.464 1.64.927 3.283 1.39 4.924 4.13-1.932 21.418 45.412 26.418 43.612 1.84.928 4.008 4.374 4.866 2.814 9.025 11.23 4.042 29.902 18.77 35.875l-1.39-5.627h2.087c2.155 5.432 2.978 3.635 6.257 7.738l10.428 36.58 6.952 5.627c5.454 9.62-13.393 46.818-18.77 49.24zM295.464 968.602c-4 .856-11.327-2.864-14.6-6.33l14.6 6.33zm-7.647-7.738c5.763.906 9.754 1.91 13.21 4.924-4.404-1.64-8.808-3.283-13.21-4.924zm20.16 5.627c.696.235 1.39.47 2.087.704-.995-.254-.762.31-2.086-.703zm124.444-21.805l.695-1.407c.695.234 1.39.47 2.086.703l-2.78.705zm11.123-6.33h2.086c-1.955.73-.35 1.034-2.085 0zm13.905-7.74h2.086c-1.866.945-1.764.27-2.086 0zm8.342-5.627l2.78 1.407h-2.085c-.23-.47-.463-.938-.695-1.407zm21.552-13.365c-1.956.733-.352 1.036-2.086 0h2.086zm-1.39-2.814c3.01-1.642 6.024-3.284 9.037-4.925.696.234 1.39.47 2.087.703-3.415 2.688-7.932 4.98-9.733 5.628l-1.39-1.407zM296.16 604.22l2.086 1.406c-2.487-.322-1.795.352-2.086-1.407zm9.733 0l-.695-2.815c2.17 1.894 2.042.253.695 2.814zm-.695-6.332l2.086-2.11s.65 3.226-2.086 2.11zm12.514-7.035v-3.517l2.78 2.814c-.23.234-.462.47-.694.703h-2.086zm443.545-33.764c-1.16.468-2.317.937-3.476 1.406.696-.703 1.39-1.407 2.087-2.11.463.233.927.468 1.39.703zm-226.64-156.166v-.703c1.623-2.11 3.246-4.22 4.867-6.33 2.752 1.63-1.863 5.424-4.866 7.034zm-37.54 43.613c-1.46 2.423-.564 1.712-3.476 2.814l2.087-2.813h1.39zm-5.562 7.738l-3.476 2.11c.23-.938.463-1.876.694-2.814 1.16-1.406 2.317-2.813 3.476-4.22 1.58 1.1.398 2.574-.695 4.925zm111.93 107.627l-4.867 4.22 2.78-4.22h2.086zm-20.857 14.772l.695-2.814c-.21 1.52.448 1.24-.695 2.814zm231.506 346.093l2.78 1.407h-2.085c-.233-.47-.465-.937-.696-1.407zm-22.247-93.557c2.685 1.542 2.243 1.186 2.78 4.924-.462-.938-.926-1.876-1.39-2.814l-1.39-2.11zM325.36 289.78c9.57-2.717 29.88-18.794 31.284-26.73-7.094 5.832-26.16 8.722-35.456 18.288l4.17 8.442zm57.702 260.977c-2.135 5.877-21.688 11.305-18.076 18.993-7.454 1.82-8.5 7.468-13.904 7.034.232-.234.463-.47.695-.703 1.622-1.874 3.245-3.75 4.866-5.627l-1.39 1.407c-4.326 1.618-7.338 5.587-9.733 9.145 4.166-1.615 3.635-3.117 6.952-.703-3.845.888-11.672 8.14-15.295 11.958 19.184-2.983 38.675-16.07 50.055-23.917-.927-.234-1.854-.47-2.78-.703 1.452-2.18 2.727-3.416 2.78-3.517.896-3.456-.78-11.383-4.17-13.366zm-45.884 12.662c1.804 1.27.85.226.695 2.11l.695.702 4.17-4.22c-1.852.47-3.706.938-5.56 1.407zm23.637 1.406l-2.086 3.517 4.865-2.814-2.78-.704zm-17.38 1.407l-1.39 1.407c.716-.084 3.315-1.81 1.39-1.407zM801.58 859.568c2.064.692.31 1.018 2.78 0-3.6-1.54-4.26-2.91-6.95-4.924 1.113 3.483.995 3.51 4.17 4.924zM392.1 967.898l4.866-2.814h-2.78l-2.086 2.814zm87.596 33.765l-4.17 2.814c1.62.235 3.244.47 4.865.703.954-1.526-.445-.696 1.39-1.407-1.366-2.375.236-.71-2.084-2.11zm-13.21 7.738c.928-.233 1.855-.468 2.782-.702-.464-.234-.927-.47-1.39-.703l-1.39 1.406z" fill-rule="evenodd" clip-rule="evenodd"/>
    </g>
</svg>